<svg xmlns="http://www.w3.org/2000/svg" viewBox="0 0 774 145.05"><defs><clipPath id="A"><path d="M-61-55.47h889v256H-61z" fill="none"/></clipPath></defs><g clip-path="url(#A)"><path d="M57 67.1V52.7h48.25a47.19 47.19 0 0 1 .78 8.84c0 10.8-3 24.2-12.48 33.7-9.26 9.65-21.1 14.8-36.8 14.8C27.65 110 3.2 86.36 3.2 57.28S27.65 4.53 56.73 4.53a50.27 50.27 0 0 1 36.15 14.54L82.72 29.23a36.75 36.75 0 0 0-26-10.29C35.5 18.94 18.9 36 18.9 57.28s16.6 38.34 37.83 38.34c13.77 0 21.62-5.53 26.63-10.55 4.1-4.1 6.78-10 7.83-18z" fill="#4285f4"/><path d="M179.53 76.07c0 19.56-15.3 34-34.1 34s-34.1-14.4-34.1-34 15.3-34 34.1-34 34.1 14.3 34.1 34zm-14.93 0c0-12.22-8.88-20.6-19.17-20.6s-19.17 8.36-19.17 20.6 8.88 20.6 19.17 20.6 19.17-8.5 19.17-20.6z" fill="#e94235"/><path d="M253.9 76.07c0 19.56-15.3 34-34.1 34s-34.1-14.4-34.1-34 15.3-34 34.1-34 34.1 14.3 34.1 34zm-14.93 0c0-12.22-8.88-20.6-19.17-20.6s-19.17 8.36-19.17 20.6 8.88 20.6 19.17 20.6 19.2-8.5 19.2-20.6z" fill="#fabb05"/><path d="M325.2 44.16v61c0 25.1-14.8 35.38-32.3 35.38a32.37 32.37 0 0 1-30.11-20.07l13-5.4c2.32 5.53 8 12.1 17.1 12.1 11.2 0 18.14-6.95 18.14-19.94v-4.9h-.5c-3.35 4.12-9.78 7.72-17.88 7.72-17 0-32.55-14.8-32.55-33.84s15.57-34.1 32.55-34.1c8.1 0 14.54 3.6 17.88 7.6h.5v-5.55zm-13.12 32c0-12-8-20.72-18.14-20.72S275 64.23 275 76.2s8.62 20.46 18.9 20.46S312.08 88 312.08 76.2z" fill="#4285f4"/><path d="M350.5 8.46V108h-14.93V8.46z" fill="#34a853"/><path d="M408.12 87.26L419.7 95a33.79 33.79 0 0 1-28.31 15c-19.3 0-33.7-14.93-33.7-34 0-20.2 14.54-34 32-34s26.25 14 29.08 21.62l1.54 3.86-45.38 18.88c3.47 6.82 8.88 10.3 16.47 10.3s12.87-3.73 16.73-9.4zM372.48 75l30.36-12.6c-1.67-4.25-6.7-7.2-12.6-7.2-7.6.03-18.14 6.72-17.75 19.8z" fill="#e94235"/><path d="M498.57 110q-20.33 0-34.1-13.77Q450.7 82.46 450.7 61.9q0-20.58 13.77-34.35 13.77-13.77 34.1-13.77 20.84 0 33.84 15.05l-8.23 8q-9.4-11.7-25.6-11.7a34.89 34.89 0 0 0-25.41 10.17Q462.8 45.44 462.8 61.9q0 16.47 10.36 26.64a34.89 34.89 0 0 0 25.41 10.17q16.6 0 28.3-13.38l8.23 8.24a44.87 44.87 0 0 1-15.83 12 48.42 48.42 0 0 1-20.71 4.42zm58.93-2h-11.84V15.85h11.84zm19.3-55.54q9.13-9.6 23.3-9.6 14.16 0 23.3 9.6 9.13 9.6 9.14 24 .01 14.4-9.14 24-9.14 9.54-23.3 9.54-14.15 0-23.3-9.6-9.14-9.6-9.13-24 .01-14.4 9.13-23.95zM585.6 93a19.91 19.91 0 0 0 29 0q6.1-6.24 6.1-16.53 0-10.3-6.1-16.54a19.91 19.91 0 0 0-29 0q-6.1 6.24-6.1 16.54 0 10.3 6.1 16.53zM698 108h-11.32v-8.78h-.5a22 22 0 0 1-8.23 7.66 23.3 23.3 0 0 1-11.72 3.12q-11.84 0-17.95-7.2-6.1-7.2-6.1-19.3V44.93H654V81.6q0 17.63 15.57 17.63a14.51 14.51 0 0 0 12-5.92 21.51 21.51 0 0 0 4.63-13.64V44.93H698zm40.15 2q-12.22 0-21.1-9.65-8.88-9.65-8.88-23.93 0-14.28 8.88-23.93 8.88-9.65 21.1-9.65A26.81 26.81 0 0 1 751.08 46a21.87 21.87 0 0 1 8.56 7.72h.5l-.5-8.75V15.85h11.84V108h-11.33v-8.78h-.5a21.87 21.87 0 0 1-8.56 7.72 26.81 26.81 0 0 1-12.93 3.06zm1.93-10.8A18.86 18.86 0 0 0 754.3 93q5.85-6.17 5.85-16.6 0-10.43-5.85-16.6a19.31 19.31 0 0 0-28.37.06q-5.93 6.3-5.93 16.6 0 10.3 5.93 16.55a18.83 18.83 0 0 0 14.15 6.22z" fill="#5f6368"/></g></svg>